<svg xmlns="http://www.w3.org/2000/svg" enable-background="new 0 0 48 48" viewBox="0 0 48 48"><path fill="#F4D08A" d="M25.5,2.5c-0.2-1.4-1.9-2.1-3.1-1.7c-0.6,0.2-1.2,0.6-1.5,1.1c-0.4,0.6-0.4,1.2-0.3,1.9
		c-0.1-0.7-0.1-0.2-0.1-0.1c-0.1,1.4,1.2,2.5,2.5,2.5c1.4,0,2.4-1.1,2.5-2.5C25.6,3.4,25.6,2.9,25.5,2.5z"/><path fill="#9BD8C4" d="M40.8,30.3c-1.4,0-2.5,1.1-2.5,2.5V34c0,1.4,1.1,2.5,2.5,2.5s2.5-1.1,2.5-2.5v-1.3
		C43.3,31.4,42.2,30.3,40.8,30.3z"/><path fill="#82A8D6" d="M8.2,33.9c0-1.5-1.1-2.4-2.5-2.5c-1.6-0.1-3.5,1.2-3.3,2.9c0.1,1.1,0.5,1.9,1.4,2.5
		c0.7,0.5,1.5,0.5,2.4,0.4C7.2,37,7.9,36,8,35C8.1,34.6,8.2,34.3,8.2,33.9z"/><path fill="#F19697" d="M25.3,20.2c-0.9-0.4-2.5-0.7-3.4-0.1c-0.1,0.1-0.2,0.1-0.3,0.2c-0.7-0.2-1.6,0.1-1.9,1
		c-0.4,1.1-1.6,1.5-2,2.7c-0.4,1.3,0.1,2.6,1.2,3.3c0.9,0.6,2.5,1.4,3.6,1.3c1.5-0.2,2.4-1.3,3.5-2.3C27.8,24.7,27.5,21.3,25.3,20.2
		z"/><path fill="#355975" d="M4.4 30.8c-.3.1-.5.2-.7.3-.2.1-.3.2-.5.3C3 31.6 2.8 31.8 2.6 32s-.3.4-.4.6c-.1.1-.1.3-.1.5 0 0 0 .1-.1.1-.1.2 0 .3.1.5-.1.2-.2.4-.2.6 0 .1 0 .2-.1.3 0 .2 0 .3 0 .5s.1.5.2.7c0 0 0 .1.1.2.1.2.2.3.3.5.2.2.3.4.6.6.4.4.9.6 1.5.8C4.7 37.9 4.8 38 5 38c.3 0 .6 0 .9 0 .1 0 .2 0 .3-.1.2-.1.4-.1.6-.2.3-.1.5-.3.8-.4.2-.1.5-.3.7-.5.1-.1.2-.2.2-.2.1-.1.2-.3.3-.4C8.9 36.1 8.9 36 9 35.9c0-.3 0-.4.1-.6s.1-.5.1-.8c0-.2 0-.3-.1-.5 0-.3-.2-.5-.3-.8-.3-.6-.7-1.1-1.2-1.6-.2-.2-.5-.4-.7-.5-.2-.2-.5-.3-.8-.3-.3-.1-.6-.1-.9-.1H5.1C4.9 30.7 4.7 30.8 4.4 30.8L4.4 30.8 4.4 30.8zM5.5 32.2C5.4 32.2 5.4 32.2 5.5 32.2c.2 0 .4.1.6.1-.1 0-.1-.1-.2-.1.2.1.4.2.6.3.1 0 .1.1.2.1 0 .2.2.4.3.5s.1.2.2.3c.1.2.2.3.3.5l0 0 0 0c0 0 0 .1.1.1v-.1c.1.2.1.4.1.5 0-.1 0-.1 0-.2 0 .2 0 .4 0 .6 0 .1 0 .2-.1.3 0 .1-.1.2-.2.3-.1.2-.3.3-.4.4-.1 0-.1.1-.2.1-.1.1-.3.2-.4.2s-.2.1-.3.1c-.2 0-.3.1-.5.1s-.3 0-.5 0-.3-.1-.5-.1c0 0-.1 0-.1-.1-.3 0-.5-.1-.6-.2 0 0 .1 0 .1.1-.1-.1-.2-.2-.3-.3s-.1-.2-.2-.4c-.1-.1-.1-.3-.1-.5 0 0 0 0 0 .1v-.1c0-.2 0-.4 0-.7 0 .1 0 .1 0 .2.1-.3.1-.5.2-.8 0-.1 0-.2 0-.3s.1-.1.1-.1C3.8 33 3.9 32.9 4 32.8c.2-.1.4-.3.6-.4 0 0 .1 0 .1-.1.1 0 .3-.1.4-.1S5.3 32.2 5.5 32.2C5.5 32.2 5.5 32.2 5.5 32.2c-.1 0-.1 0-.2 0C5.3 32.2 5.4 32.2 5.5 32.2 5.4 32.2 5.4 32.2 5.5 32.2 5.4 32.2 5.4 32.2 5.5 32.2 5.4 32.2 5.4 32.2 5.5 32.2L5.5 32.2 5.5 32.2zM6.3 32.5C6.4 32.5 6.4 32.5 6.3 32.5 6.4 32.5 6.4 32.5 6.3 32.5L6.3 32.5 6.3 32.5zM6.4 32.6C6.4 32.6 6.5 32.6 6.4 32.6 6.5 32.6 6.4 32.6 6.4 32.6L6.4 32.6 6.4 32.6zM7.6 34.6C7.6 34.7 7.6 34.7 7.6 34.6 7.6 34.7 7.6 34.7 7.6 34.6L7.6 34.6 7.6 34.6zM7.5 35C7.5 35 7.5 35.1 7.5 35 7.5 35.1 7.5 35 7.5 35L7.5 35 7.5 35zM7.5 35.1C7.5 35.2 7.5 35.2 7.5 35.1 7.5 35.2 7.5 35.2 7.5 35.1L7.5 35.1 7.5 35.1zM7.3 35.4L7.3 35.4C7.3 35.5 7.3 35.5 7.3 35.4L7.3 35.4 7.3 35.4zM4.6 36.3L4.6 36.3 4.6 36.3 4.6 36.3 4.6 36.3zM5.1 36.4L5.1 36.4 5.1 36.4 5.1 36.4 5.1 36.4zM7.4 33.9L7.4 33.9 7.4 33.9 7.4 33.9 7.4 33.9 7.4 33.9zM5.4 32.2L5.4 32.2 5.4 32.2 5.4 32.2 5.4 32.2 5.4 32.2 5.4 32.2zM22.8.1c-.3.1-.6.1-.8.3-.2.1-.4.2-.6.3-.3.2-.5.4-.7.6-.1.1-.3.3-.4.4-.2.2-.3.5-.4.7-.1.1-.2.2-.3.4-.1.4-.3.8-.3 1.2 0 .1 0 .3 0 .4s0 .3 0 .4c0 .2.1.4.1.6.2.5.5.9.9 1.2.1 0 .1.1.2.1C20.6 6.9 20.8 7 21 7.1c.3.1.6.2.8.3.2 0 .4.1.6.1.1 0 .2 0 .3 0 .2 0 .4-.1.6-.1.2-.1.4-.1.5-.2.3-.1.6-.3.8-.5.2-.2.4-.4.6-.6.1-.2.3-.3.4-.5.2-.4.4-.8.5-1.2.1-.2.1-.4.1-.6 0-.1 0-.1 0-.2 0-.3 0-.5 0-.8 0-.2-.1-.4-.1-.6-.1-.3-.2-.5-.3-.8-.1-.1-.2-.3-.3-.4-.2-.2-.4-.4-.7-.5S24.3.3 24 .2C23.9 0 23.6 0 23.3 0 23.2 0 23 0 22.8.1L22.8.1 22.8.1zM23.5 1.8c.1 0 .2.1.3.1C23.9 2 24 2 24.1 2.1s.2.1.2.2c.1.1.1.2.2.3.1.2.1.4.1.7 0-.1 0-.2 0-.2 0 .1 0 .3 0 .4 0 .1-.1.3-.1.4 0 .1-.1.2-.1.3C24.3 4.5 24.2 4.7 24 5c-.1.1-.3.3-.4.4s-.3.2-.5.3c-.2.1-.3.1-.5.1l0 0 0 0h-.1c0 0 0 0 .1 0h-.1.1c.1 0 .1 0 .2 0-.1 0-.2 0-.3 0-.1 0-.2-.1-.4-.1-.2-.1-.3-.2-.4-.3 0 0-.1 0-.1-.1-.1-.1-.2-.2-.3-.3-.1-.1-.1-.2-.2-.3 0-.1-.1-.2-.1-.4 0-.2 0-.4 0-.5s0-.1 0-.2c.2-.2.3-.5.5-.7s.4-.4.6-.6c.2-.1.3-.2.5-.3 0 0 .1 0 .1-.1.2-.1.3-.1.5-.1C23.3 1.8 23.4 1.8 23.5 1.8L23.5 1.8 23.5 1.8zM23.6 1.8L23.6 1.8 23.6 1.8 23.6 1.8 23.6 1.8zM24.4 2.4l.1.1C24.5 2.4 24.4 2.4 24.4 2.4L24.4 2.4 24.4 2.4zM24.5 2.6c0 .1.1.1.1.2C24.6 2.8 24.6 2.7 24.5 2.6L24.5 2.6 24.5 2.6zM24.7 3.3c0 .1 0 .1 0 .2C24.7 3.4 24.7 3.3 24.7 3.3L24.7 3.3 24.7 3.3zM24.4 4.3L24.4 4.3 24.4 4.3 24.4 4.3 24.4 4.3zM21 4.7c0 0 0 .1.1.1l0 0C21.1 4.8 21.1 4.7 21 4.7L21 4.7 21 4.7zM21.1 4.8L21.1 4.8C21.1 4.9 21.1 4.9 21.1 4.8 21.1 4.9 21.1 4.9 21.1 4.8L21.1 4.8 21.1 4.8zM24.1 4.9L24.1 4.9 24.1 4.9 24.1 4.9 24.1 4.9zM21.6 5.4c.1 0 .1.1.2.1C21.8 5.5 21.7 5.4 21.6 5.4L21.6 5.4 21.6 5.4zM22.6 5.8L22.6 5.8 22.6 5.8 22.6 5.8 22.6 5.8 22.6 5.8 22.6 5.8zM41 29.7c-.7.1-1.3.4-1.8.7-.2.1-.3.3-.5.4-.1.1-.2.2-.3.3-.1.2-.3.3-.4.5-.1.1-.1.2-.2.3-.1.2-.1.4-.2.5-.1.3-.1.6-.1.9 0 .3.1.6.1.8v.1c0 .1 0 .3 0 .4.2.5.4 1 .7 1.4.1.1.1.2.2.3.1.2.3.3.5.4.2.2.4.3.7.4.2.1.4.2.6.2.3.1.5.1.8.1s.5-.1.8-.2c.3-.1.5-.2.7-.4.4-.3.7-.7 1-1 .2-.2.3-.5.4-.8.1-.3.2-.6.2-.9 0-.3.1-.7.1-1 0-.1 0-.2 0-.4s0-.5-.1-.7c0-.2-.1-.4-.2-.6-.1-.3-.2-.5-.4-.7-.1-.2-.3-.4-.5-.6s-.4-.3-.6-.4c-.2-.1-.4-.1-.5-.1s-.3 0-.4 0C41.3 29.6 41.2 29.6 41 29.7L41 29.7 41 29.7zM41.5 31.4c.1 0 .2 0 .2.1.1 0 .1.1.2.1l.1.1c.1.1.1.2.2.3.1.2.1.5.2.7 0 .2 0 .3 0 .5s0 .4 0 .6c0 .2-.1.3-.1.5 0 .1-.1.2-.1.2-.1.2-.2.4-.4.6 0-.1.1-.1.1-.2-.1.1-.3.3-.4.4-.1.1-.2.1-.3.1s-.2.1-.4.1c-.1 0-.1 0-.2 0-.1 0-.2-.1-.3-.1-.1-.1-.2-.1-.3-.2-.1-.1-.3-.2-.4-.4-.1-.2-.2-.4-.3-.6 0-.1 0-.1-.1-.2v-.1c0-.1 0-.2 0-.2 0-.3 0-.5 0-.8 0-.1.1-.3.1-.4.1-.2.2-.4.4-.6 0 .1-.1.1-.1.2.2-.2.4-.4.6-.5-.1 0-.1.1-.2.1.2-.2.5-.3.7-.4-.1 0-.1.1-.2.1.2-.1.4-.1.6-.2C41.2 31.4 41.3 31.4 41.5 31.4L41.5 31.4 41.5 31.4zM41.5 31.4C41.6 31.4 41.6 31.4 41.5 31.4 41.6 31.4 41.6 31.4 41.5 31.4L41.5 31.4 41.5 31.4zM41.7 31.5C41.8 31.5 41.8 31.5 41.7 31.5c.1.1.1.1.2.1C41.9 31.5 41.8 31.5 41.7 31.5 41.8 31.5 41.8 31.5 41.7 31.5 41.8 31.5 41.8 31.5 41.7 31.5 41.8 31.5 41.7 31.5 41.7 31.5S41.8 31.5 41.7 31.5C41.8 31.5 41.8 31.5 41.7 31.5L41.7 31.5 41.7 31.5zM42 31.8l.1.1C42.1 31.8 42.1 31.8 42 31.8L42 31.8 42 31.8zM42.2 32.1C42.2 32.1 42.2 32.2 42.2 32.1 42.2 32.2 42.2 32.1 42.2 32.1L42.2 32.1 42.2 32.1zM39.4 32.5C39.4 32.5 39.4 32.6 39.4 32.5 39.4 32.6 39.4 32.6 39.4 32.5L39.4 32.5 39.4 32.5zM42.4 32.8C42.4 32.9 42.4 32.9 42.4 32.8 42.4 32.9 42.4 32.9 42.4 32.8L42.4 32.8 42.4 32.8zM39.4 34.5C39.4 34.5 39.4 34.6 39.4 34.5 39.4 34.6 39.4 34.5 39.4 34.5L39.4 34.5 39.4 34.5zM39.6 34.9L39.6 34.9 39.6 34.9 39.6 34.9 39.6 34.9zM39.8 35.3c.1 0 .1.1.2.1C39.9 35.3 39.9 35.3 39.8 35.3L39.8 35.3 39.8 35.3zM41.6 35.3L41.6 35.3C41.5 35.4 41.6 35.3 41.6 35.3L41.6 35.3 41.6 35.3zM40.2 35.5c.1 0 .1 0 .2.1C40.3 35.5 40.2 35.5 40.2 35.5L40.2 35.5 40.2 35.5zM41 35.6L41 35.6C41 35.7 41 35.6 41 35.6L41 35.6 41 35.6zM41.8 31.5L41.8 31.5 41.8 31.5 41.8 31.5 41.8 31.5 41.8 31.5 41.8 31.5zM21 19.8c-.8.5-1.5 1-2.1 1.7-.2.3-.4.6-.6.9-.2 0-.4.2-.6.4-.2.4-.4.8-.5 1.2 0 .2-.1.3-.1.5C17 24.7 17 25.1 17 25.4c0 .2.1.4.1.6.1.3.2.6.4.9.2.5.6.9 1 1.3.2.1.3.2.5.3.2.2.6.3.8.4.2.1.4.1.6.2.8.3 1.7.3 2.5.1.9-.1 1.8-.5 2.6-1 .8-.5 1.4-1.2 2-1.9.1-.1.2-.2.3-.3.2-.2.3-.5.4-.7s.2-.4.2-.6c0-.1.1-.3.1-.4 0-.2.1-.4.1-.6s0-.5 0-.7c0-.3-.1-.6-.2-.9-.1-.2-.1-.4-.2-.5-.1-.3-.3-.5-.5-.8-.1-.2-.3-.4-.5-.5-.2-.2-.5-.4-.8-.6-.2-.1-.4-.2-.6-.3-.1 0-.3-.1-.4-.1-.3-.1-.5-.1-.8-.2s-.7-.1-1-.1C22.7 19.1 21.8 19.3 21 19.8L21 19.8 21 19.8zM23.5 20.8c.3 0 .6 0 .9 0-.1 0-.2 0-.2 0 .1 0 .3.1.4.1.2.1.5.1.7.2h-.1c.2.1.4.2.6.3.1.1.1.1.2.2.2.2.3.3.5.5 0-.1-.1-.1-.1-.2.1.2.2.3.3.5.1.3.2.5.2.8 0 .1 0 .1 0 .2 0 .2 0 .4 0 .6v-.1V24v.1V24c0 .2-.1.4-.2.6-.1.1-.1.3-.2.4-.1.2-.2.3-.3.5-.2.2-.3.4-.5.6s-.4.3-.6.5c-.1.1-.2.2-.4.2-.2.1-.4.2-.6.3l0 0c-.2.1-.5.2-.7.2-.3.1-.6.1-.8.2-.3 0-.7 0-1 0s-.5-.1-.8-.2c-.1 0-.2-.1-.2-.1-.3-.1-.5-.3-.7-.4s-.3-.3-.4-.4c0 0 0 0 0 .1 0-.1-.1-.1-.1-.2-.1-.2-.2-.4-.3-.5-.1-.2-.1-.4-.2-.6 0 .1 0 .2 0 .2 0-.2 0-.5 0-.7 0-.1 0-.3.1-.4s.3-.3.4-.4c.2-.2.3-.4.5-.7.2-.2.4-.5.6-.7s.5-.4.7-.6c.1-.1.2-.2.3-.2.3-.2.6-.4.9-.5.1 0 .2-.1.3-.1.2-.1.4-.1.7-.2C23.3 20.9 23.4 20.8 23.5 20.8L23.5 20.8 23.5 20.8zM25.6 21.3C25.7 21.4 25.7 21.4 25.6 21.3 25.7 21.4 25.7 21.4 25.6 21.3L25.6 21.3 25.6 21.3zM25.8 21.4C25.8 21.5 25.8 21.5 25.8 21.4 25.8 21.5 25.8 21.5 25.8 21.4L25.8 21.4 25.8 21.4zM20.9 21.9L20.9 21.9 20.9 21.9 20.9 21.9 20.9 21.9zM20.9 21.9C20.9 21.9 20.9 22 20.9 21.9 20.9 22 20.9 21.9 20.9 21.9L20.9 21.9 20.9 21.9zM19.6 23.3L19.6 23.3 19.6 23.3 19.6 23.3 19.6 23.3zM26.6 24.5c0 .1 0 .1-.1.2C26.6 24.6 26.6 24.6 26.6 24.5L26.6 24.5 26.6 24.5zM18.9 25.9L18.9 25.9 18.9 25.9 18.9 25.9 18.9 25.9zM22.4 27.6L22.4 27.6 22.4 27.6 22.4 27.6 22.4 27.6zM26.7 24.1L26.7 24.1 26.7 24.1 26.7 24.1 26.7 24.1 26.7 24.1z"/><path fill="#355975" d="M33.1,10c-1.2,0-2.4,0.1-3.6,0.3c-1.1,0.2-2.3,0.4-3.3,0.7s-1.9,0.7-2.9,1c-1,0.4-2,0.8-3,1.3
				c-0.9,0.5-1.8,0.9-2.7,1.5c-0.9,0.6-1.8,1.3-2.7,2c-0.9,0.6-1.7,1.3-2.5,1.9c-1,0.8-2,1.7-2.9,2.6c-1,1-1.9,2.1-2.7,3.2
				s-1.5,2.2-2,3.4c-0.3,0.6-0.5,1.2-0.6,1.8C4,30,4,30.3,4,30.6c0,0.2,0,0.4,0.1,0.5c0,0.1,0.1,0.2,0.1,0.3c0,0.1,0,0.2,0,0.3
				c0.1,0.3,0.4,0.5,0.7,0.4c0.3-0.1,0.4-0.3,0.4-0.6l0,0l0,0l0,0c0,0,0,0,0-0.1c0.1-0.2,0.1-0.3,0.2-0.5s0.1-0.4,0.2-0.6
				c0.1-0.5,0.3-1,0.5-1.5c0.3-0.7,0.6-1.3,1-1.9c0.4-0.7,0.9-1.3,1.4-2c0,0,0,0.1-0.1,0.1l0.1-0.1l0,0l0,0c0.4-0.5,0.8-1,1.3-1.5
				s1-1.1,1.6-1.6c1-0.9,2-1.8,3.1-2.6l0,0l0,0l0.1-0.1c0,0,0,0-0.1,0c1.4-1,2.8-2,4.2-3c1.4-0.9,3-1.7,4.5-2.3c0,0-0.1,0-0.1,0.1
				c1-0.4,2-0.8,3-1.1c0.6-0.2,1.2-0.3,1.8-0.5c0.6-0.1,1.3-0.2,1.9-0.3l0,0c0.9-0.1,1.7-0.2,2.6-0.2c0.8,0,1.6,0,2.4,0.1
				c0.5,0.1,0.9,0.1,1.4,0.3c0.5,0.1,1,0.3,1.5,0.5s1,0.5,1.5,0.8c0.2,0.2,0.5,0.4,0.7,0.6c0.1,0.1,0.2,0.2,0.2,0.3
				c0.1,0.1,0.2,0.3,0.3,0.4c0.1,0.2,0.2,0.4,0.3,0.6c0.1,0.1,0.1,0.3,0.2,0.4c0.1,0.2,0.1,0.3,0.1,0.5c0,0.3,0,0.6,0,0.9l0,0
				c0,0.2-0.1,0.4-0.1,0.6c-0.1,0.2-0.1,0.4-0.2,0.6c-0.2,0.4-0.4,0.9-0.6,1.3c-0.3,0.5-0.6,1-1,1.5s-0.8,1-1.3,1.5
				c-0.6,0.6-1.2,1.2-1.8,1.7c-1.2,1.1-2.5,2.1-3.8,3.1c0.1,0,0.1-0.1,0.2-0.1c-1.1,0.9-2.3,1.6-3.4,2.4c-1,0.7-2.2,1.3-3.3,1.8
				c-1.3,0.7-2.7,1.2-4,1.9c-1.2,0.5-2.3,1.1-3.5,1.6l0,0c-1.6,0.7-3.3,1.3-5,1.6c-0.7,0.1-1.5,0.1-2.2,0c-0.4-0.1-0.7-0.1-1.1-0.2
				c-0.5-0.1-1-0.3-1.5-0.5c-0.2,0-0.3,0-0.5,0c-0.2,0.1-0.4,0.2-0.5,0.4s-0.2,0.5-0.1,0.7s0.2,0.4,0.4,0.5c0.6,0,1.2,0.2,1.8,0.4
				c0.5,0.1,1.1,0.2,1.6,0.3c0.4,0,0.9,0.1,1.3,0.1c0.5,0,1-0.1,1.5-0.1c0.9-0.1,1.7-0.4,2.5-0.7c0.9-0.3,1.8-0.7,2.7-1.1
				c0.9-0.4,1.9-0.8,2.8-1.3c1-0.5,2.1-1,3.1-1.4c1-0.5,1.9-0.9,2.9-1.4c0.9-0.5,1.8-1.1,2.6-1.7c0.9-0.6,1.8-1.3,2.7-2
				c1-0.7,1.9-1.5,2.8-2.3c0.9-0.8,1.8-1.5,2.6-2.4c0.8-0.8,1.5-1.6,2.1-2.6c0.3-0.4,0.6-0.8,0.8-1.3c0.1-0.2,0.3-0.5,0.4-0.7
				c0.2-0.3,0.3-0.6,0.4-0.9c0.1-0.2,0.2-0.5,0.3-0.7c0.1-0.5,0.2-1.1,0.1-1.7c-0.1-0.6-0.3-1.2-0.6-1.8c-0.2-0.5-0.5-0.9-0.9-1.4
				c-0.3-0.3-0.6-0.7-0.9-0.9c-0.3-0.2-0.6-0.4-0.9-0.6c-0.5-0.3-1.1-0.5-1.6-0.8c-0.6-0.2-1.1-0.4-1.7-0.5
				c-0.5-0.1-1.1-0.1-1.6-0.2c-0.3,0-0.6,0-1,0C33.5,10,33.3,10,33.1,10L33.1,10L33.1,10z M29.9,11.9h-0.1H29.9L29.9,11.9L29.9,11.9
				z M37.6,12.4C37.7,12.4,37.7,12.5,37.6,12.4C37.7,12.5,37.7,12.4,37.6,12.4L37.6,12.4L37.6,12.4z M40.8,18.1
				c0,0.1-0.1,0.1-0.1,0.2C40.8,18.3,40.8,18.2,40.8,18.1L40.8,18.1L40.8,18.1z M39.2,21C39.2,21,39.1,21,39.2,21
				C39.1,21,39.2,21,39.2,21L39.2,21L39.2,21z M6.1,28.8C6.1,28.9,6,28.9,6,29C6.1,28.9,6.1,28.9,6.1,28.8L6.1,28.8L6.1,28.8z
				 M18.3,34.9c-0.1,0-0.1,0-0.2,0.1C18.2,34.9,18.2,34.9,18.3,34.9L18.3,34.9L18.3,34.9z M11.1,36.4c0.1,0,0.1,0,0.2,0
				C11.3,36.4,11.2,36.4,11.1,36.4L11.1,36.4L11.1,36.4z M5.3,31.5L5.3,31.5L5.3,31.5L5.3,31.5L5.3,31.5L5.3,31.5z M8.6,24.9
				C8.5,24.9,8.5,24.9,8.6,24.9C8.5,24.9,8.5,24.9,8.6,24.9C8.6,24.8,8.6,24.8,8.6,24.9L8.6,24.9L8.6,24.9z M14.5,19.1L14.5,19.1
				L14.5,19.1C14.6,19,14.5,19.1,14.5,19.1L14.5,19.1L14.5,19.1z"/><path fill="#355975" d="M9.9,10.2c-0.6,0.1-1.1,0.2-1.7,0.4C7.6,10.7,7,11,6.5,11.3c-0.3,0.2-0.6,0.4-0.8,0.7
				c-0.3,0.2-0.5,0.6-0.7,0.8s-0.3,0.5-0.4,0.8s-0.2,0.6-0.3,0.9c-0.1,0.3-0.1,0.6-0.2,0.9c0,0.3,0,0.5-0.1,0.8
				c0,0.8,0.1,1.6,0.3,2.4C4.6,19.8,5,20.9,5.5,22c1,2,2.5,3.8,4.1,5.4c0.7,0.7,1.4,1.4,2.2,2c0.8,0.7,1.7,1.4,2.5,2
				c0.9,0.7,1.8,1.4,2.8,2c0.9,0.6,1.8,1.1,2.7,1.6c1,0.5,2,0.9,3.1,1.3c1,0.4,2.1,0.7,3.2,1s2.1,0.6,3.2,0.7
				c1.1,0.1,2.2,0.2,3.3,0.2c0.6,0,1.2,0,1.8,0c0.5,0,1-0.1,1.5-0.1c0.6-0.1,1.1-0.2,1.7-0.4c0.6-0.2,1.2-0.4,1.7-0.7
				c0.4-0.3,0.6-0.8,0.3-1.3s-0.8-0.6-1.3-0.3c-0.2,0.1-0.4,0.2-0.6,0.3c-0.5,0.2-1,0.4-1.6,0.5c-0.9,0.1-1.8,0.2-2.8,0.2
				s-1.9,0-2.9-0.1c-0.7-0.1-1.4-0.2-2.1-0.3s-1.3-0.3-2-0.5c-0.8-0.2-1.5-0.4-2.3-0.6c-0.7-0.2-1.5-0.5-2.2-0.8c-1-0.4-2-0.9-3-1.5
				c-0.6-0.3-1.2-0.7-1.7-1.1c-0.5-0.3-0.9-0.7-1.4-1c0,0,0,0,0.1,0c-1.3-1-2.5-2-3.7-3.1c-0.6-0.5-1.1-1.1-1.7-1.6
				c-0.5-0.5-1-1.1-1.4-1.7l0,0c-0.5-0.7-1-1.4-1.4-2.1s-0.8-1.4-1.1-2.2c-0.1-0.4-0.3-0.8-0.4-1.1c-0.1-0.4-0.2-0.9-0.3-1.3
				c0-0.3,0-0.6-0.1-0.9c0-0.2,0-0.3,0-0.5c0-0.2,0.1-0.4,0.1-0.6c0.1-0.3,0.2-0.7,0.3-1c0-0.1,0.1-0.2,0.2-0.3
				c0.1-0.2,0.3-0.5,0.5-0.7c0,0.1-0.1,0.1-0.1,0.2C6.8,13.4,7,13.2,7.2,13c0.3-0.2,0.6-0.4,0.9-0.5c0.1-0.1,0.3-0.1,0.4-0.2
				C8.8,12.2,9,12.1,9.3,12s0.6-0.1,1-0.2c0.4,0,0.9-0.1,1.3-0.1c0.5,0,1.1,0,1.6,0.1l0,0c1.6,0.2,3.3,0.7,4.8,1.2s3,1.1,4.5,1.7
				c0,0-0.1,0-0.1-0.1c0.1,0,0.1,0,0.2,0.1l0,0l0,0c1.4,0.6,2.7,1.2,4,2c0.8,0.4,1.5,0.9,2.2,1.4s1.5,1,2.2,1.6
				c-0.1-0.1-0.1-0.1-0.2-0.1c0.7,0.6,1.5,1.2,2.2,1.8c0.4,0.3,0.8,0.7,1.3,1c0.5,0.4,0.9,0.8,1.3,1.1c0.7,0.6,1.3,1.1,2,1.7
				s1.3,1.3,1.9,2.1l-0.1-0.1l0.1,0.1l0,0l0,0c0.5,0.6,0.9,1.2,1.3,1.9c0.2,0.3,0.3,0.6,0.5,0.9c0.1,0.2,0.2,0.3,0.2,0.5
				c0.1,0.1,0.2,0.2,0.2,0.3c0,0.1,0,0.1,0,0.2c0.1,0.3,0.4,0.5,0.7,0.4s0.5-0.4,0.4-0.7v-0.1c0-0.2,0.1-0.4,0-0.5
				c0-0.3-0.1-0.5-0.1-0.7c-0.1-0.2-0.1-0.5-0.2-0.7c-0.1-0.3-0.3-0.6-0.4-0.9c-0.2-0.5-0.6-0.9-0.9-1.3c-0.4-0.5-0.8-1-1.2-1.5
				c-0.6-0.7-1.3-1.3-2-2c-0.8-0.7-1.7-1.5-2.5-2.2c-0.9-0.7-1.8-1.4-2.7-2.1c-0.9-0.7-1.8-1.3-2.7-1.9c-0.5-0.3-1-0.6-1.5-1
				c-0.5-0.3-0.9-0.6-1.4-0.9c-0.4-0.3-0.8-0.5-1.3-0.7s-1-0.5-1.5-0.7c-2-0.9-4.1-1.5-6.1-2.2c-1.1-0.3-2.1-0.7-3.2-1
				S12.8,10,11.6,10h-0.1C10.9,10.1,10.4,10.1,9.9,10.2L9.9,10.2L9.9,10.2z M10,11.9C10,11.9,9.9,11.9,10,11.9
				C9.9,11.9,10,11.9,10,11.9L10,11.9L10,11.9z M6.6,20L6.6,20L6.6,20L6.6,20L6.6,20z M21.8,34L21.8,34L21.8,34L21.8,34L21.8,34z
				 M37.9,35.7c-0.1,0-0.1,0.1-0.2,0.1C37.8,35.7,37.8,35.7,37.9,35.7L37.9,35.7L37.9,35.7z M15.8,30.4l-0.1-0.1
				C15.7,30.4,15.8,30.4,15.8,30.4L15.8,30.4L15.8,30.4z M39.3,27.4C39.3,27.3,39.3,27.3,39.3,27.4C39.3,27.3,39.3,27.3,39.3,27.4
				C39.3,27.3,39.3,27.3,39.3,27.4L39.3,27.4L39.3,27.4z M22.4,14.8C22.4,14.8,22.4,14.7,22.4,14.8C22.3,14.7,22.3,14.7,22.4,14.8
				C22.3,14.7,22.4,14.7,22.4,14.8L22.4,14.8L22.4,14.8z"/><path fill="#355975" d="M19.7,3.1c-0.5,0.2-1,0.4-1.5,0.7c-0.4,0.3-0.8,0.7-1.2,1c-0.8,0.8-1.5,1.7-2.2,2.6
				c-0.6,0.9-0.9,1.9-1.3,2.8c-0.2,0.5-0.3,0.9-0.4,1.4c-0.1,0.6-0.3,1.1-0.3,1.7c-0.4,2.2-0.3,4.5-0.2,6.7c0.1,1.1,0.2,2.2,0.2,3.2
				c0.1,1.1,0.1,2.2,0.1,3.4c0,1.1,0,2.2,0.2,3.2c0.2,1.1,0.4,2.2,0.6,3.3c0.2,1,0.4,2,0.7,3.1c0.2,0.9,0.4,1.8,0.7,2.7
				s0.7,1.8,1.2,2.6c0.3,0.4,0.6,0.9,1,1.2c0.4,0.4,0.9,0.7,1.4,1s1,0.5,1.5,0.7s0.9,0.3,1.4,0.4c0.5,0.1,1,0.2,1.5,0.2
				c0.2,0,0.5,0,0.7,0c0.4,0,0.9,0,1.3-0.1c0.3-0.1,0.5-0.1,0.7-0.2c0.1-0.1,0.3-0.1,0.4-0.2c0.2-0.1,0.4-0.2,0.5-0.3
				c0.4-0.2,0.9-0.5,1.2-0.8c0.4-0.3,0.7-0.6,1-0.9c0.4-0.4,0.8-0.7,1.1-1.2c0.6-0.8,1-1.7,1.5-2.6c0.2-0.5,0.4-1,0.6-1.5
				s0.3-1.1,0.5-1.7c0.5-2,0.9-4.1,1.3-6.1c0.3-2,0.5-4,0.6-6c0-1.6-0.1-3.1-0.5-4.6c-0.1-0.8-0.3-1.5-0.5-2.3
				c-0.3-0.9-0.6-1.8-1-2.7c-0.4-0.8-0.8-1.6-1.2-2.4c-0.4-0.8-0.8-1.6-1.2-2.3c-0.5-0.8-1.1-1.6-1.7-2.4c-0.3-0.4-0.6-0.8-0.9-1.1
				c-0.2-0.3-0.5-0.5-0.8-0.7c0.1,0.2,0.1,0.1,0,0.1l0.1,0.1l0,0c-0.2-0.3-0.5-0.4-0.8-0.2c-0.3,0.1-0.4,0.5-0.2,0.8
				c0.1,0,0.2,0.1,0.2,0.2c0.1,0.3,0.3,0.6,0.4,0.8C26.8,7.1,27,7.6,27.3,8c0.6,0.8,1.1,1.7,1.6,2.6c0.4,0.8,0.8,1.6,1.3,2.3
				c0.5,0.9,0.9,1.7,1.3,2.6c0.3,0.8,0.6,1.7,0.8,2.5s0.4,1.5,0.5,2.3c0.2,1.5,0.3,3,0.2,4.5s-0.3,2.9-0.4,4.3V29
				c-0.4,3-1.1,6-2.2,8.8v-0.1v0.1c0,0,0,0.1-0.1,0.1v-0.1c-0.4,1-0.9,1.9-1.5,2.7c0-0.1,0.1-0.1,0.1-0.2c-0.2,0.3-0.5,0.6-0.7,0.8
				s-0.5,0.5-0.8,0.7c-0.5,0.4-1.1,0.7-1.7,1h-0.1c-0.2,0.1-0.4,0.1-0.7,0.2c-0.8,0.1-1.6,0.1-2.4,0c-0.3-0.1-0.7-0.1-1-0.2
				c-0.3-0.1-0.7-0.2-1-0.3s-0.5-0.2-0.8-0.4s-0.5-0.3-0.7-0.5c-0.3-0.2-0.5-0.5-0.7-0.7s-0.3-0.5-0.5-0.7c-0.1-0.2-0.3-0.5-0.4-0.7
				l0,0c-0.3-0.7-0.5-1.5-0.7-2.3c-0.2-0.9-0.5-1.7-0.6-2.6c-0.2-0.9-0.4-1.8-0.6-2.7c-0.2-1-0.4-1.9-0.5-2.9
				c-0.2-1.2-0.2-2.4-0.2-3.6c0-1.4-0.1-2.7-0.2-4.1c-0.1-2.5-0.2-5,0.1-7.5c0.2-1.3,0.6-2.6,1-3.8c0.4-1,0.9-1.9,1.6-2.8
				c0.3-0.4,0.7-0.8,1.1-1.1c0.3-0.3,0.6-0.5,0.8-0.7c0.4-0.3,0.7-0.5,1.2-0.7C20.1,5,20.1,5,20,5.1C20.1,5,20.1,5,20.2,5
				s0.2-0.1,0.2-0.1c0.1-0.1,0.3-0.2,0.3-0.3c0.1-0.2,0.2-0.5,0.1-0.7s-0.2-0.5-0.4-0.6c-0.1-0.1-0.3-0.1-0.5-0.1
				C19.8,3.1,19.8,3.1,19.7,3.1L19.7,3.1L19.7,3.1z M19.2,5.5c-0.1,0-0.1,0.1-0.2,0.1C19.1,5.6,19.2,5.6,19.2,5.5L19.2,5.5L19.2,5.5
				z M32.8,20.4L32.8,20.4L32.8,20.4L32.8,20.4L32.8,20.4z M14.8,29.2L14.8,29.2L14.8,29.2L14.8,29.2L14.8,29.2z M17.3,39.4
				c0,0.1,0,0.1,0.1,0.2C17.3,39.5,17.3,39.5,17.3,39.4L17.3,39.4L17.3,39.4z M18.2,41.1l0.1,0.1C18.3,41.2,18.2,41.1,18.2,41.1
				L18.2,41.1L18.2,41.1z M18.7,41.7l0.1,0.1C18.8,41.7,18.8,41.7,18.7,41.7L18.7,41.7L18.7,41.7z M27.2,42
				C27.2,42,27.2,42.1,27.2,42L27.2,42L27.2,42L27.2,42z M25.5,43L25.5,43L25.5,43L25.5,43L25.5,43z M30.3,37.9L30.3,37.9L30.3,37.9
				L30.3,37.9L30.3,37.9L30.3,37.9z M32.5,29.3v-0.1C32.5,29.2,32.5,29.3,32.5,29.3L32.5,29.3L32.5,29.3z"/><path fill="#355975" d="M23.1 20.4c-.9.9-1.8 1.9-2.6 2.9-.5.5-.9 1.1-1.4 1.6-.2.2-.4.5-.6.7-.1.1-.2.2-.3.3C18.1 26 18.1 26 18 26.1c-.2.3-.1.6.2.8.3.2.6.1.8-.2 0-.1.1-.1.2-.2 0 0 0 .1-.1.1l.1-.1 0 0 0 0c.7-.9 1.5-1.7 2.2-2.6.8-.9 1.7-1.9 2.6-2.7.2-.2.3-.6 0-.9-.1-.1-.3-.2-.5-.2C23.3 20.3 23.2 20.3 23.1 20.4L23.1 20.4 23.1 20.4zM19.1 26.6L19.1 26.6 19.1 26.6 19.1 26.6 19.1 26.6 19.1 26.6zM24.9 21.7c-1 .9-2 1.9-2.9 2.9-.5.5-1 .9-1.4 1.4-.4.4-.8.9-1.2 1.3-.2.2-.2.6 0 .8.2.2.6.2.8 0 .8-.9 1.7-1.7 2.6-2.6 1-1 2.1-2 3.1-2.9.2-.2.3-.6 0-.9-.1-.1-.3-.2-.5-.2C25.2 21.5 25.1 21.6 24.9 21.7L24.9 21.7 24.9 21.7zM25.9 23.5c-.8.8-1.7 1.6-2.5 2.3-.4.4-.8.7-1.1 1.1-.2.2-.4.4-.6.6s-.3.3-.5.5c-.2.3-.1.6.2.8.2.1.5.1.7-.1l0 0c.3-.3.7-.6 1-1 .4-.3.7-.7 1.1-1 .8-.8 1.7-1.6 2.5-2.3.2-.2.3-.6 0-.9-.1-.1-.3-.2-.4-.2S26 23.4 25.9 23.5L25.9 23.5 25.9 23.5zM30 42.8c-.3.4-.6.8-.9 1.2l0 0c-.3.3-.5.6-.8.8-.3.3-.6.5-.9.7-.2.1-.4.3-.6.4-.3.2-.7.4-1.1.5-.2.1-.5.1-.7.2-.2.1-.5.1-.7.1-.6.1-1.1.1-1.7 0-.5 0-.9-.1-1.4-.2-.1 0-.1 0-.2 0-.3-.1-.6.1-.7.4-.1.3.1.6.4.7.1.1.3.1.4.1.2.1.5.1.7.1s.4.1.7.1c.2 0 .5 0 .7 0 .5 0 1.1-.1 1.6-.1.5-.1 1-.2 1.5-.4.3-.1.5-.2.8-.4.2-.1.4-.3.7-.4.4-.3.8-.6 1.2-.9.8-.7 1.5-1.5 2.1-2.4.2-.3.1-.6-.2-.8-.1-.1-.2-.1-.3-.1C30.3 42.5 30.1 42.6 30 42.8L30 42.8 30 42.8zM27.5 45.4L27.5 45.4 27.5 45.4 27.5 45.4 27.5 45.4zM33.6 6.3c-.5.1-.9.1-1.4.2-.1 0-.3.1-.3.2-.1.1-.1.3-.1.4s.1.3.2.3c.1.1.3.1.4.1s.2 0 .2 0l0 0c.8 0 1.6-.1 2.3-.1.4 0 .8 0 1.2 0 .3 0 .7.1 1 .1.2 0 .4.1.6.1.2 0 .4.1.6.2.2.1.4.1.6.2.2.1.3.1.5.2s.4.2.5.3c.2.1.4.2.6.3.4.2.7.5 1.1.7l-.1-.1c.2.2.4.3.6.5.3.3.7.6 1 1 .2.2.6.3.8 0 .2-.2.3-.6 0-.8-.3-.3-.6-.7-1-1C43 9 42.8 8.9 42.6 8.7s-.4-.3-.7-.5c-.2-.1-.4-.3-.6-.4-.5-.3-1-.5-1.5-.8-.3-.1-.5-.2-.8-.3-.2-.1-.5-.2-.7-.2-.5-.1-.9-.2-1.4-.3-.6-.1-1.2-.1-1.7-.1C34.6 6.2 34.1 6.3 33.6 6.3L33.6 6.3 33.6 6.3zM32.8 7.5L32.8 7.5 32.8 7.5 32.8 7.5 32.8 7.5zM37.3 7.6c.1 0 .1 0 .2 0C37.4 7.6 37.3 7.6 37.3 7.6L37.3 7.6 37.3 7.6zM42.6 23.8c-.3.1-.5.4-.4.7 0 .2.1.3.3.3l0 0 0 0c0 0 0 0 .1 0 0 0 .1 0 .1.1.5.5 1 1 1.5 1.6l0 0c.1.2.2.3.3.5s.2.5.3.7c0-.1 0-.1-.1-.1.2.6.4 1.3.5 1.9.1.3.4.5.7.4.1 0 .3-.1.4-.3.1-.1.1-.3.1-.5-.1-.4-.1-.7-.2-1.1-.1-.4-.2-.8-.3-1.1-.1-.4-.3-.7-.5-1s-.4-.5-.6-.7c-.3-.4-.7-.7-1-1-.2-.1-.3-.3-.5-.4-.1-.1-.2-.1-.4-.1C42.7 23.7 42.7 23.7 42.6 23.8L42.6 23.8 42.6 23.8zM42.7 24.9L42.7 24.9 42.7 24.9 42.7 24.9 42.7 24.9zM44 26.4C44.1 26.4 44.1 26.4 44 26.4 44.1 26.4 44.1 26.4 44 26.4L44 26.4 44 26.4zM8.2 5.8C8 5.9 7.8 6 7.7 6.1 7.5 6.2 7.3 6.3 7.1 6.4c-.3.2-.7.5-1 .7C5.8 7.4 5.5 7.7 5.2 8 5.1 8.1 4.9 8.3 4.8 8.4 4.7 8.6 4.5 8.8 4.4 8.9c-.6.7-1.1 1.5-1.5 2.4C2.5 12.1 2.2 13 2 13.9s-.3 1.9-.3 2.9c0 .3.3.6.6.6s.6-.3.6-.6c0-.7.1-1.3.2-2 .1-.4.2-.8.3-1.2.1-.5.3-1 .6-1.5 0 .1 0 .1-.1.1.2-.3.3-.7.5-1 .1-.2.3-.5.4-.7S5.1 10 5.3 9.8c.1-.1.2-.2.3-.3.1-.1.1-.2.2-.2.2-.4.6-.8 1-1.1.5-.4 1-.8 1.5-1.2.1 0 .1-.1.2-.1.3-.1.4-.4.4-.6C8.8 6 8.5 5.8 8.3 5.8 8.2 5.8 8.2 5.8 8.2 5.8L8.2 5.8 8.2 5.8zM8.4 6.9L8.4 6.9 8.4 6.9 8.4 6.9 8.4 6.9 8.4 6.9zM8.3 7C8.2 7 8.2 7 8.3 7 8.2 7 8.2 7 8.3 7L8.3 7 8.3 7z"/></svg>